<svg width="234" height="234" viewBox="0 0 234 234" fill="none" xmlns="http://www.w3.org/2000/svg">
<path d="M16.2433 58.8281L117 0.656196L217.757 58.8281V175.172L117 233.344L16.2433 175.172V58.8281Z" fill="#001829" stroke="#297EA6" stroke-width="1.13656"/>
<path d="M73.8338 70.0735V71.7644H69.4923V86H67.413V71.7644H63.0486V70.0735H73.8338ZM75.6165 79.6934C75.6165 78.4138 75.8755 77.2941 76.3934 76.3344C76.9113 75.3595 77.6197 74.6055 78.5184 74.0723C79.4324 73.5391 80.4455 73.2725 81.5575 73.2725C82.6543 73.2725 83.6064 73.5087 84.4137 73.9809C85.2211 74.4531 85.8228 75.0472 86.2189 75.7632V73.4782H88.3211V86H86.2189V83.6693C85.8076 84.4005 85.1906 85.0098 84.368 85.4973C83.5607 85.9695 82.6162 86.2057 81.5346 86.2057C80.4226 86.2057 79.4172 85.9315 78.5184 85.383C77.6197 84.8346 76.9113 84.0654 76.3934 83.0752C75.8755 82.085 75.6165 80.9578 75.6165 79.6934ZM86.2189 79.7162C86.2189 78.7718 86.0285 77.9492 85.6476 77.2484C85.2668 76.5477 84.7489 76.0145 84.0938 75.6489C83.454 75.2681 82.7457 75.0777 81.9688 75.0777C81.1919 75.0777 80.4835 75.2605 79.8437 75.6261C79.2039 75.9917 78.6936 76.5249 78.3128 77.2256C77.932 77.9263 77.7415 78.7489 77.7415 79.6934C77.7415 80.6531 77.932 81.4909 78.3128 82.2069C78.6936 82.9076 79.2039 83.4484 79.8437 83.8292C80.4835 84.1948 81.1919 84.3776 81.9688 84.3776C82.7457 84.3776 83.454 84.1948 84.0938 83.8292C84.7489 83.4484 85.2668 82.9076 85.6476 82.2069C86.0285 81.4909 86.2189 80.6607 86.2189 79.7162ZM98.8271 86L93.9143 80.4703V86H91.835V69.091H93.9143V79.0307L98.7357 73.4782H101.638L95.7423 79.7162L101.66 86H98.8271ZM115.02 79.2592C115.02 79.6553 114.997 80.0742 114.951 80.516H104.943C105.019 81.7499 105.438 82.7172 106.2 83.4179C106.977 84.1034 107.913 84.4462 109.01 84.4462C109.909 84.4462 110.655 84.2405 111.249 83.8292C111.859 83.4027 112.285 82.8391 112.529 82.1383H114.768C114.433 83.3418 113.763 84.3243 112.758 85.086C111.752 85.8324 110.503 86.2057 109.01 86.2057C107.822 86.2057 106.756 85.9391 105.811 85.4059C104.882 84.8727 104.151 84.1187 103.618 83.1437C103.084 82.1536 102.818 81.0111 102.818 79.7162C102.818 78.4214 103.077 77.2865 103.595 76.3116C104.113 75.3367 104.836 74.5902 105.765 74.0723C106.71 73.5391 107.791 73.2725 109.01 73.2725C110.198 73.2725 111.249 73.5315 112.163 74.0494C113.077 74.5674 113.778 75.2833 114.266 76.1973C114.768 77.0961 115.02 78.1167 115.02 79.2592ZM112.872 78.8251C112.872 78.033 112.697 77.3551 112.346 76.7914C111.996 76.2126 111.516 75.7784 110.907 75.489C110.313 75.1843 109.65 75.032 108.919 75.032C107.868 75.032 106.969 75.3671 106.222 76.0374C105.491 76.7077 105.072 77.6369 104.966 78.8251H112.872ZM134.641 73.4782L127.101 91.8953H124.953L127.421 85.8629L122.371 73.4782H124.679L128.609 83.6236L132.494 73.4782H134.641ZM142.193 86.2057C141.02 86.2057 139.954 85.9391 138.994 85.4059C138.049 84.8727 137.303 84.1187 136.755 83.1437C136.221 82.1536 135.955 81.0111 135.955 79.7162C135.955 78.4366 136.229 77.3094 136.777 76.3344C137.341 75.3443 138.103 74.5902 139.062 74.0723C140.022 73.5391 141.096 73.2725 142.284 73.2725C143.472 73.2725 144.546 73.5391 145.506 74.0723C146.466 74.5902 147.22 75.3367 147.768 76.3116C148.332 77.2865 148.614 78.4214 148.614 79.7162C148.614 81.0111 148.324 82.1536 147.745 83.1437C147.182 84.1187 146.412 84.8727 145.438 85.4059C144.463 85.9391 143.381 86.2057 142.193 86.2057ZM142.193 84.3776C142.939 84.3776 143.64 84.2025 144.295 83.8521C144.95 83.5017 145.476 82.9762 145.872 82.2754C146.283 81.5747 146.489 80.7216 146.489 79.7162C146.489 78.7108 146.291 77.8578 145.895 77.157C145.498 76.4563 144.981 75.9384 144.341 75.6032C143.701 75.2529 143.008 75.0777 142.261 75.0777C141.5 75.0777 140.799 75.2529 140.159 75.6032C139.535 75.9384 139.032 76.4563 138.651 77.157C138.27 77.8578 138.08 78.7108 138.08 79.7162C138.08 80.7369 138.263 81.5976 138.628 82.2983C139.009 82.999 139.512 83.5246 140.136 83.8749C140.761 84.2101 141.446 84.3776 142.193 84.3776ZM162.453 73.4782V86H160.373V84.1491C159.977 84.7889 159.421 85.2916 158.705 85.6572C158.005 86.0076 157.228 86.1828 156.375 86.1828C155.4 86.1828 154.524 85.9848 153.747 85.5887C152.97 85.1774 152.353 84.5681 151.896 83.7607C151.454 82.9533 151.233 81.9708 151.233 80.813V73.4782H153.29V80.5388C153.29 81.7727 153.602 82.7248 154.227 83.3951C154.851 84.0501 155.704 84.3776 156.786 84.3776C157.898 84.3776 158.774 84.0349 159.414 83.3494C160.053 82.6639 160.373 81.6661 160.373 80.356V73.4782H162.453ZM168.043 75.5118C168.409 74.7959 168.926 74.2399 169.597 73.8438C170.282 73.4477 171.112 73.2497 172.087 73.2497V75.3976H171.539C169.208 75.3976 168.043 76.662 168.043 79.1907V86H165.964V73.4782H168.043V75.5118ZM74.0772 105.924C73.3917 105.924 72.8281 105.726 72.3863 105.33C71.9598 104.919 71.7465 104.416 71.7465 103.822C71.7465 103.213 71.9598 102.71 72.3863 102.314C72.8281 101.903 73.3917 101.697 74.0772 101.697C74.7475 101.697 75.2959 101.903 75.7224 102.314C76.1642 102.71 76.3851 103.213 76.3851 103.822C76.3851 104.416 76.1642 104.919 75.7224 105.33C75.2959 105.726 74.7475 105.924 74.0772 105.924ZM76.0195 107.25V120H72.1121V107.25H76.0195ZM78.0742 113.602C78.0742 112.292 78.3179 111.142 78.8054 110.152C79.3081 109.161 79.986 108.4 80.839 107.867C81.6921 107.333 82.6442 107.067 83.6953 107.067C84.5331 107.067 85.2948 107.242 85.9803 107.592C86.681 107.943 87.2294 108.415 87.6255 109.009V103.091H91.5328V120H87.6255V118.172C87.2599 118.781 86.7343 119.269 86.0488 119.634C85.3786 120 84.5941 120.183 83.6953 120.183C82.6442 120.183 81.6921 119.916 80.839 119.383C79.986 118.835 79.3081 118.065 78.8054 117.075C78.3179 116.07 78.0742 114.912 78.0742 113.602ZM87.6255 113.625C87.6255 112.65 87.3513 111.881 86.8029 111.317C86.2697 110.753 85.6147 110.472 84.8378 110.472C84.0609 110.472 83.3982 110.753 82.8498 111.317C82.3167 111.865 82.0501 112.627 82.0501 113.602C82.0501 114.577 82.3167 115.354 82.8498 115.933C83.3982 116.496 84.0609 116.778 84.8378 116.778C85.6147 116.778 86.2697 116.496 86.8029 115.933C87.3513 115.369 87.6255 114.6 87.6255 113.625ZM106.379 113.419C106.379 113.785 106.356 114.166 106.31 114.562H97.4672C97.5282 115.354 97.7795 115.963 98.2213 116.39C98.6783 116.801 99.2343 117.007 99.8893 117.007C100.864 117.007 101.542 116.595 101.923 115.773H106.082C105.868 116.611 105.48 117.365 104.916 118.035C104.368 118.705 103.675 119.231 102.837 119.612C101.999 119.992 101.062 120.183 100.026 120.183C98.7773 120.183 97.6653 119.916 96.6903 119.383C95.7154 118.85 94.9537 118.088 94.4053 117.098C93.8569 116.108 93.5827 114.95 93.5827 113.625C93.5827 112.3 93.8493 111.142 94.3825 110.152C94.9309 109.161 95.6926 108.4 96.6675 107.867C97.6424 107.333 98.7621 107.067 100.026 107.067C101.26 107.067 102.357 107.326 103.317 107.844C104.277 108.362 105.023 109.101 105.556 110.06C106.105 111.02 106.379 112.14 106.379 113.419ZM102.38 112.391C102.38 111.721 102.151 111.188 101.694 110.791C101.237 110.395 100.666 110.197 99.9807 110.197C99.3257 110.197 98.7697 110.388 98.3127 110.769C97.8709 111.149 97.5967 111.69 97.4901 112.391H102.38ZM107.663 113.602C107.663 112.292 107.907 111.142 108.394 110.152C108.897 109.161 109.575 108.4 110.428 107.867C111.281 107.333 112.233 107.067 113.284 107.067C114.183 107.067 114.968 107.25 115.638 107.615C116.323 107.981 116.849 108.461 117.214 109.055V107.25H121.122V120H117.214V118.195C116.834 118.789 116.3 119.269 115.615 119.634C114.945 120 114.16 120.183 113.261 120.183C112.226 120.183 111.281 119.916 110.428 119.383C109.575 118.835 108.897 118.065 108.394 117.075C107.907 116.07 107.663 114.912 107.663 113.602ZM117.214 113.625C117.214 112.65 116.94 111.881 116.392 111.317C115.859 110.753 115.204 110.472 114.427 110.472C113.65 110.472 112.987 110.753 112.439 111.317C111.906 111.865 111.639 112.627 111.639 113.602C111.639 114.577 111.906 115.354 112.439 115.933C112.987 116.496 113.65 116.778 114.427 116.778C115.204 116.778 115.859 116.496 116.392 115.933C116.94 115.369 117.214 114.6 117.214 113.625ZM129.136 120.183C128.024 120.183 127.033 119.992 126.165 119.612C125.297 119.231 124.611 118.713 124.109 118.058C123.606 117.387 123.324 116.641 123.263 115.818H127.125C127.17 116.26 127.376 116.618 127.742 116.892C128.107 117.167 128.557 117.304 129.09 117.304C129.577 117.304 129.951 117.212 130.21 117.029C130.484 116.831 130.621 116.58 130.621 116.275C130.621 115.91 130.43 115.643 130.05 115.476C129.669 115.293 129.052 115.095 128.199 114.882C127.285 114.668 126.523 114.447 125.914 114.219C125.304 113.975 124.779 113.602 124.337 113.099C123.895 112.581 123.674 111.888 123.674 111.02C123.674 110.289 123.872 109.626 124.269 109.032C124.68 108.423 125.274 107.943 126.051 107.592C126.843 107.242 127.78 107.067 128.861 107.067C130.461 107.067 131.718 107.463 132.632 108.255C133.561 109.047 134.094 110.098 134.231 111.408H130.621C130.56 110.967 130.362 110.616 130.027 110.357C129.707 110.098 129.28 109.969 128.747 109.969C128.29 109.969 127.94 110.06 127.696 110.243C127.452 110.411 127.33 110.647 127.33 110.951C127.33 111.317 127.521 111.591 127.902 111.774C128.298 111.957 128.907 112.14 129.73 112.322C130.674 112.566 131.443 112.81 132.038 113.054C132.632 113.282 133.15 113.663 133.591 114.196C134.048 114.714 134.284 115.415 134.3 116.298C134.3 117.045 134.086 117.715 133.66 118.309C133.249 118.888 132.647 119.345 131.855 119.68C131.078 120.015 130.171 120.183 129.136 120.183ZM145.661 109.192V116.572C145.661 117.182 145.791 117.616 146.05 117.875C146.309 118.119 146.758 118.241 147.398 118.241H148.929V120H147.055C145.897 120 145.029 119.733 144.45 119.2C143.871 118.667 143.582 117.791 143.582 116.572V109.192H141.959V107.478H143.582V104.325H145.661V107.478H148.929V109.192H145.661ZM156.909 120.206C155.736 120.206 154.67 119.939 153.71 119.406C152.766 118.873 152.019 118.119 151.471 117.144C150.938 116.154 150.671 115.011 150.671 113.716C150.671 112.437 150.945 111.309 151.494 110.334C152.057 109.344 152.819 108.59 153.779 108.072C154.738 107.539 155.812 107.273 157.001 107.273C158.189 107.273 159.263 107.539 160.222 108.072C161.182 108.59 161.936 109.337 162.485 110.312C163.048 111.287 163.33 112.421 163.33 113.716C163.33 115.011 163.041 116.154 162.462 117.144C161.898 118.119 161.129 118.873 160.154 119.406C159.179 119.939 158.097 120.206 156.909 120.206ZM156.909 118.378C157.656 118.378 158.356 118.202 159.011 117.852C159.666 117.502 160.192 116.976 160.588 116.275C160.999 115.575 161.205 114.722 161.205 113.716C161.205 112.711 161.007 111.858 160.611 111.157C160.215 110.456 159.697 109.938 159.057 109.603C158.417 109.253 157.724 109.078 156.978 109.078C156.216 109.078 155.515 109.253 154.876 109.603C154.251 109.938 153.748 110.456 153.367 111.157C152.987 111.858 152.796 112.711 152.796 113.716C152.796 114.737 152.979 115.598 153.345 116.298C153.725 116.999 154.228 117.525 154.853 117.875C155.477 118.21 156.163 118.378 156.909 118.378ZM72.0958 141.25C73.6191 141.25 74.853 141.714 75.7975 142.644C76.742 143.558 77.2142 144.883 77.2142 146.619V154H75.1577V146.916C75.1577 145.667 74.8454 144.715 74.2209 144.06C73.5963 143.39 72.7432 143.055 71.6617 143.055C70.5649 143.055 69.6889 143.398 69.0339 144.083C68.3941 144.769 68.0742 145.766 68.0742 147.076V154H65.9949V141.478H68.0742V143.26C68.4855 142.621 69.0415 142.126 69.7423 141.775C70.4582 141.425 71.2427 141.25 72.0958 141.25ZM92.0358 147.259C92.0358 147.655 92.013 148.074 91.9673 148.516H81.959C82.0351 149.75 82.4541 150.717 83.2157 151.418C83.9926 152.103 84.9295 152.446 86.0263 152.446C86.925 152.446 87.6715 152.241 88.2656 151.829C88.8749 151.403 89.3014 150.839 89.5452 150.138H91.7845C91.4493 151.342 90.7791 152.324 89.7737 153.086C88.7683 153.832 87.5191 154.206 86.0263 154.206C84.8381 154.206 83.7717 153.939 82.8273 153.406C81.898 152.873 81.1668 152.119 80.6337 151.144C80.1005 150.154 79.8339 149.011 79.8339 147.716C79.8339 146.421 80.0929 145.287 80.6108 144.312C81.1288 143.337 81.8523 142.59 82.7816 142.072C83.726 141.539 84.8076 141.273 86.0263 141.273C87.2145 141.273 88.2656 141.532 89.1796 142.049C90.0936 142.567 90.7943 143.283 91.2818 144.197C91.7845 145.096 92.0358 146.117 92.0358 147.259ZM89.8879 146.825C89.8879 146.033 89.7127 145.355 89.3624 144.791C89.012 144.213 88.5322 143.778 87.9228 143.489C87.3287 143.184 86.6661 143.032 85.9349 143.032C84.8838 143.032 83.985 143.367 83.2386 144.037C82.5074 144.708 82.0885 145.637 81.9818 146.825H89.8879ZM101.316 154L98.3451 149.339L95.4888 154H93.3181L97.3625 147.785L93.3181 141.478H95.6716L98.6421 146.117L101.476 141.478H103.646L99.6247 147.671L103.669 154H101.316ZM108.251 143.192V150.572C108.251 151.182 108.38 151.616 108.639 151.875C108.898 152.119 109.348 152.241 109.988 152.241H111.518V154H109.645C108.487 154 107.619 153.733 107.04 153.2C106.461 152.667 106.172 151.791 106.172 150.572V143.192H104.549V141.478H106.172V138.325H108.251V141.478H111.518V143.192H108.251ZM122.209 137.091V154H120.13V137.091H122.209ZM137.178 147.259C137.178 147.655 137.155 148.074 137.109 148.516H127.101C127.177 149.75 127.596 150.717 128.358 151.418C129.135 152.103 130.072 152.446 131.168 152.446C132.067 152.446 132.814 152.241 133.408 151.829C134.017 151.403 134.444 150.839 134.687 150.138H136.927C136.591 151.342 135.921 152.324 134.916 153.086C133.91 153.832 132.661 154.206 131.168 154.206C129.98 154.206 128.914 153.939 127.969 153.406C127.04 152.873 126.309 152.119 125.776 151.144C125.243 150.154 124.976 149.011 124.976 147.716C124.976 146.421 125.235 145.287 125.753 144.312C126.271 143.337 126.994 142.59 127.924 142.072C128.868 141.539 129.95 141.273 131.168 141.273C132.357 141.273 133.408 141.532 134.322 142.049C135.236 142.567 135.936 143.283 136.424 144.197C136.927 145.096 137.178 146.117 137.178 147.259ZM135.03 146.825C135.03 146.033 134.855 145.355 134.505 144.791C134.154 144.213 133.674 143.778 133.065 143.489C132.471 143.184 131.808 143.032 131.077 143.032C130.026 143.032 129.127 143.367 128.381 144.037C127.65 144.708 127.231 145.637 127.124 146.825H135.03ZM144.584 152.081L148.469 141.478H150.685L145.772 154H143.35L138.437 141.478H140.677L144.584 152.081ZM164.156 147.259C164.156 147.655 164.133 148.074 164.088 148.516H154.079C154.155 149.75 154.574 150.717 155.336 151.418C156.113 152.103 157.05 152.446 158.147 152.446C159.045 152.446 159.792 152.241 160.386 151.829C160.995 151.403 161.422 150.839 161.665 150.138H163.905C163.57 151.342 162.899 152.324 161.894 153.086C160.889 153.832 159.639 154.206 158.147 154.206C156.958 154.206 155.892 153.939 154.948 153.406C154.018 152.873 153.287 152.119 152.754 151.144C152.221 150.154 151.954 149.011 151.954 147.716C151.954 146.421 152.213 145.287 152.731 144.312C153.249 143.337 153.973 142.59 154.902 142.072C155.846 141.539 156.928 141.273 158.147 141.273C159.335 141.273 160.386 141.532 161.3 142.049C162.214 142.567 162.915 143.283 163.402 144.197C163.905 145.096 164.156 146.117 164.156 147.259ZM162.008 146.825C162.008 146.033 161.833 145.355 161.483 144.791C161.132 144.213 160.652 143.778 160.043 143.489C159.449 143.184 158.786 143.032 158.055 143.032C157.004 143.032 156.105 143.367 155.359 144.037C154.628 144.708 154.209 145.637 154.102 146.825H162.008ZM168.98 137.091V154H166.901V137.091H168.98Z" fill="white"/>
</svg>
