<svg width="180" height="27" viewBox="0 0 180 27" fill="none" xmlns="http://www.w3.org/2000/svg">
<path d="M18.808 8.648C18.808 9.992 18.484 11.252 17.836 12.428C17.212 13.604 16.216 14.552 14.848 15.272C13.504 15.992 11.8 16.352 9.736 16.352H5.524V26H0.484V0.872H9.736C11.68 0.872 13.336 1.208 14.704 1.88C16.072 2.552 17.092 3.476 17.764 4.652C18.46 5.828 18.808 7.16 18.808 8.648ZM9.52 12.284C10.912 12.284 11.944 11.972 12.616 11.348C13.288 10.7 13.624 9.8 13.624 8.648C13.624 6.2 12.256 4.976 9.52 4.976H5.524V12.284H9.52ZM35.3463 26L29.8023 16.208H27.4263V26H22.3863V0.872H31.8183C33.7623 0.872 35.4183 1.22 36.7863 1.916C38.1543 2.588 39.1743 3.512 39.8463 4.688C40.5423 5.84 40.8903 7.136 40.8903 8.576C40.8903 10.232 40.4103 11.732 39.4503 13.076C38.4903 14.396 37.0623 15.308 35.1663 15.812L41.1783 26H35.3463ZM27.4263 12.428H31.6383C33.0063 12.428 34.0263 12.104 34.6983 11.456C35.3703 10.784 35.7063 9.86 35.7063 8.684C35.7063 7.532 35.3703 6.644 34.6983 6.02C34.0263 5.372 33.0063 5.048 31.6383 5.048H27.4263V12.428ZM57.1128 26.252C54.7608 26.252 52.6008 25.7 50.6328 24.596C48.6648 23.492 47.1048 21.968 45.9528 20.024C44.8008 18.056 44.2248 15.836 44.2248 13.364C44.2248 10.916 44.8008 8.72 45.9528 6.776C47.1048 4.808 48.6648 3.272 50.6328 2.168C52.6008 1.064 54.7608 0.512 57.1128 0.512C59.4888 0.512 61.6488 1.064 63.5928 2.168C65.5608 3.272 67.1088 4.808 68.2368 6.776C69.3888 8.72 69.9648 10.916 69.9648 13.364C69.9648 15.836 69.3888 18.056 68.2368 20.024C67.1088 21.968 65.5608 23.492 63.5928 24.596C61.6248 25.7 59.4648 26.252 57.1128 26.252ZM57.1128 21.752C58.6248 21.752 59.9568 21.416 61.1088 20.744C62.2608 20.048 63.1608 19.064 63.8088 17.792C64.4568 16.52 64.7808 15.044 64.7808 13.364C64.7808 11.684 64.4568 10.22 63.8088 8.972C63.1608 7.7 62.2608 6.728 61.1088 6.056C59.9568 5.384 58.6248 5.048 57.1128 5.048C55.6008 5.048 54.2568 5.384 53.0808 6.056C51.9288 6.728 51.0288 7.7 50.3808 8.972C49.7328 10.22 49.4088 11.684 49.4088 13.364C49.4088 15.044 49.7328 16.52 50.3808 17.792C51.0288 19.064 51.9288 20.048 53.0808 20.744C54.2568 21.416 55.6008 21.752 57.1128 21.752ZM88.3665 0.872V18.512C88.3665 20.96 87.6585 22.868 86.2425 24.236C84.8265 25.58 82.9305 26.252 80.5545 26.252C78.1545 26.252 76.2105 25.556 74.7225 24.164C73.2585 22.772 72.5265 20.828 72.5265 18.332H77.5665C77.5905 19.412 77.8425 20.252 78.3225 20.852C78.8265 21.452 79.5465 21.752 80.4825 21.752C81.3945 21.752 82.0905 21.464 82.5705 20.888C83.0505 20.312 83.2905 19.52 83.2905 18.512V0.872H88.3665ZM99.2857 4.94V11.24H107.746V15.236H99.2857V21.896H108.826V26H94.2457V0.835998H108.826V4.94H99.2857ZM112.182 13.4C112.182 10.928 112.734 8.72 113.838 6.776C114.966 4.808 116.49 3.284 118.41 2.204C120.354 1.1 122.526 0.547999 124.926 0.547999C127.734 0.547999 130.194 1.268 132.306 2.708C134.418 4.148 135.894 6.14 136.734 8.684H130.938C130.362 7.484 129.546 6.584 128.49 5.984C127.458 5.384 126.258 5.084 124.89 5.084C123.426 5.084 122.118 5.432 120.966 6.128C119.838 6.8 118.95 7.76 118.302 9.008C117.678 10.256 117.366 11.72 117.366 13.4C117.366 15.056 117.678 16.52 118.302 17.792C118.95 19.04 119.838 20.012 120.966 20.708C122.118 21.38 123.426 21.716 124.89 21.716C126.258 21.716 127.458 21.416 128.49 20.816C129.546 20.192 130.362 19.28 130.938 18.08H136.734C135.894 20.648 134.418 22.652 132.306 24.092C130.218 25.508 127.758 26.216 124.926 26.216C122.526 26.216 120.354 25.676 118.41 24.596C116.49 23.492 114.966 21.968 113.838 20.024C112.734 18.08 112.182 15.872 112.182 13.4ZM158.139 0.872V4.94H151.443V26H146.403V4.94H139.707V0.872H158.139ZM170.492 26.252C168.74 26.252 167.156 25.952 165.74 25.352C164.348 24.752 163.244 23.888 162.428 22.76C161.612 21.632 161.192 20.3 161.168 18.764H166.568C166.64 19.796 167 20.612 167.648 21.212C168.32 21.812 169.232 22.112 170.384 22.112C171.56 22.112 172.484 21.836 173.156 21.284C173.828 20.708 174.164 19.964 174.164 19.052C174.164 18.308 173.936 17.696 173.48 17.216C173.024 16.736 172.448 16.364 171.752 16.1C171.08 15.812 170.144 15.5 168.944 15.164C167.312 14.684 165.98 14.216 164.948 13.76C163.94 13.28 163.064 12.572 162.32 11.636C161.6 10.676 161.24 9.404 161.24 7.82C161.24 6.332 161.612 5.036 162.356 3.932C163.1 2.828 164.144 1.988 165.488 1.412C166.832 0.812 168.368 0.512 170.096 0.512C172.688 0.512 174.788 1.148 176.396 2.42C178.028 3.668 178.928 5.42 179.096 7.676H173.552C173.504 6.812 173.132 6.104 172.436 5.552C171.764 4.976 170.864 4.688 169.736 4.688C168.752 4.688 167.96 4.94 167.36 5.444C166.784 5.948 166.496 6.68 166.496 7.64C166.496 8.312 166.712 8.876 167.144 9.332C167.6 9.764 168.152 10.124 168.8 10.412C169.472 10.676 170.408 10.988 171.608 11.348C173.24 11.828 174.572 12.308 175.604 12.788C176.636 13.268 177.524 13.988 178.268 14.948C179.012 15.908 179.384 17.168 179.384 18.728C179.384 20.072 179.036 21.32 178.34 22.472C177.644 23.624 176.624 24.548 175.28 25.244C173.936 25.916 172.34 26.252 170.492 26.252Z" fill="#001829"/>
<path d="M17.836 12.428L17.398 12.1867L17.3943 12.1936L17.836 12.428ZM14.848 15.272L14.6151 14.8295L14.6119 14.8313L14.848 15.272ZM5.524 16.352V15.852H5.024V16.352H5.524ZM5.524 26V26.5H6.024V26H5.524ZM0.484 26H-0.0159998V26.5H0.484V26ZM0.484 0.872V0.372H-0.0159998V0.872H0.484ZM17.764 4.652L17.3298 4.9001L17.3337 4.90666L17.764 4.652ZM12.616 11.348L12.9563 11.7145L12.9631 11.7079L12.616 11.348ZM5.524 4.976V4.476H5.024V4.976H5.524ZM5.524 12.284H5.024V12.784H5.524V12.284ZM18.308 8.648C18.308 9.9077 18.0053 11.0847 17.3981 12.1867L18.2739 12.6693C18.9627 11.4193 19.308 10.0763 19.308 8.648H18.308ZM17.3943 12.1936C16.8247 13.2672 15.9089 14.1486 14.6151 14.8295L15.0809 15.7145C16.5231 14.9554 17.5993 13.9408 18.2777 12.6624L17.3943 12.1936ZM14.6119 14.8313C13.3616 15.501 11.7455 15.852 9.736 15.852V16.852C11.8545 16.852 13.6464 16.483 15.0841 15.7127L14.6119 14.8313ZM9.736 15.852H5.524V16.852H9.736V15.852ZM5.024 16.352V26H6.024V16.352H5.024ZM5.524 25.5H0.484V26.5H5.524V25.5ZM0.984 26V0.872H-0.0159998V26H0.984ZM0.484 1.372H9.736V0.372H0.484V1.372ZM9.736 1.372C11.624 1.372 13.2004 1.69845 14.4835 2.32878L14.9245 1.43122C13.4716 0.717551 11.736 0.372 9.736 0.372V1.372ZM14.4835 2.32878C15.7735 2.96244 16.7135 3.82144 17.3299 4.90007L18.1981 4.40393C17.4705 3.13056 16.3705 2.14155 14.9245 1.43122L14.4835 2.32878ZM17.3337 4.90666C17.9801 5.99877 18.308 7.24138 18.308 8.648H19.308C19.308 7.07862 18.9399 5.65723 18.1943 4.39734L17.3337 4.90666ZM9.52 12.784C10.9746 12.784 12.1538 12.4595 12.9562 11.7144L12.2758 10.9816C11.7342 11.4845 10.8494 11.784 9.52 11.784V12.784ZM12.9631 11.7079C13.7548 10.9445 14.124 9.90187 14.124 8.648H13.124C13.124 9.69813 12.8212 10.4555 12.2689 10.9881L12.9631 11.7079ZM14.124 8.648C14.124 7.33165 13.7536 6.25707 12.9314 5.52138C12.1197 4.79515 10.9522 4.476 9.52 4.476V5.476C10.8238 5.476 11.7083 5.76884 12.2646 6.26662C12.8104 6.75493 13.124 7.51634 13.124 8.648H14.124ZM9.52 4.476H5.524V5.476H9.52V4.476ZM5.024 4.976V12.284H6.024V4.976H5.024ZM5.524 12.784H9.52V11.784H5.524V12.784ZM35.3463 26L34.9112 26.2463L35.0549 26.5H35.3463V26ZM29.8023 16.208L30.2374 15.9617L30.0938 15.708H29.8023V16.208ZM27.4263 16.208V15.708H26.9263V16.208H27.4263ZM27.4263 26V26.5H27.9263V26H27.4263ZM22.3863 26H21.8863V26.5H22.3863V26ZM22.3863 0.872V0.372H21.8863V0.872H22.3863ZM36.7863 1.916L36.5596 2.36168L36.5659 2.36478L36.7863 1.916ZM39.8463 4.688L39.4121 4.93614L39.4184 4.94656L39.8463 4.688ZM39.4503 13.076L39.8547 13.3701L39.8572 13.3666L39.4503 13.076ZM35.1663 15.812L35.0379 15.3288L34.4006 15.4982L34.7357 16.0661L35.1663 15.812ZM41.1783 26V26.5H42.054L41.609 25.7459L41.1783 26ZM27.4263 12.428H26.9263V12.928H27.4263V12.428ZM34.6983 11.456L35.0455 11.816L35.0519 11.8096L34.6983 11.456ZM34.6983 6.02L34.3512 6.37999L34.3581 6.3864L34.6983 6.02ZM27.4263 5.048V4.548H26.9263V5.048H27.4263ZM35.7814 25.7537L30.2374 15.9617L29.3672 16.4543L34.9112 26.2463L35.7814 25.7537ZM29.8023 15.708H27.4263V16.708H29.8023V15.708ZM26.9263 16.208V26H27.9263V16.208H26.9263ZM27.4263 25.5H22.3863V26.5H27.4263V25.5ZM22.8863 26V0.872H21.8863V26H22.8863ZM22.3863 1.372H31.8183V0.372H22.3863V1.372ZM31.8183 1.372C33.704 1.372 35.2781 1.70962 36.5596 2.36164L37.0131 1.47036C35.5586 0.730379 33.8207 0.372 31.8183 0.372V1.372ZM36.5659 2.36478C37.8559 2.99844 38.7959 3.85744 39.4122 4.93607L40.2805 4.43993C39.5528 3.16656 38.4528 2.17755 37.0068 1.46722L36.5659 2.36478ZM39.4184 4.94656C40.0639 6.01507 40.3903 7.22052 40.3903 8.576H41.3903C41.3903 7.05148 41.0207 5.66493 40.2743 4.42944L39.4184 4.94656ZM40.3903 8.576C40.3903 10.1281 39.9427 11.5264 39.0435 12.7854L39.8572 13.3666C40.878 11.9376 41.3903 10.3359 41.3903 8.576H40.3903ZM39.046 12.7819C38.1664 13.9913 36.8462 14.8481 35.0379 15.3288L35.2948 16.2952C37.2785 15.7679 38.8143 14.8007 39.8547 13.3701L39.046 12.7819ZM34.7357 16.0661L40.7477 26.2541L41.609 25.7459L35.597 15.5579L34.7357 16.0661ZM41.1783 25.5H35.3463V26.5H41.1783V25.5ZM27.4263 12.928H31.6383V11.928H27.4263V12.928ZM31.6383 12.928C33.076 12.928 34.2446 12.5881 35.0454 11.8159L34.3513 11.0961C33.8081 11.6199 32.9366 11.928 31.6383 11.928V12.928ZM35.0519 11.8096C35.8389 11.0226 36.2063 9.95924 36.2063 8.684H35.2063C35.2063 9.76076 34.9018 10.5454 34.3448 11.1024L35.0519 11.8096ZM36.2063 8.684C36.2063 7.43098 35.8373 6.3953 35.0386 5.6536L34.3581 6.3864C34.9034 6.8927 35.2063 7.63302 35.2063 8.684H36.2063ZM35.0454 5.66008C34.2446 4.88788 33.076 4.548 31.6383 4.548V5.548C32.9366 5.548 33.8081 5.85612 34.3513 6.37992L35.0454 5.66008ZM31.6383 4.548H27.4263V5.548H31.6383V4.548ZM26.9263 5.048V12.428H27.9263V5.048H26.9263ZM50.6328 24.596L50.8775 24.1599L50.6328 24.596ZM45.9528 20.024L45.5213 20.2766L45.5227 20.2789L45.9528 20.024ZM45.9528 6.776L46.383 7.0309L46.3844 7.02859L45.9528 6.776ZM50.6328 2.168L50.3882 1.73193L50.3882 1.73193L50.6328 2.168ZM63.5928 2.168L63.3459 2.60278L63.3482 2.60407L63.5928 2.168ZM68.2368 6.776L67.803 7.02466L67.8067 7.0309L68.2368 6.776ZM68.2368 20.024L67.8053 19.7714L67.8044 19.7731L68.2368 20.024ZM63.5928 24.596L63.3482 24.1599L63.3482 24.1599L63.5928 24.596ZM61.1088 20.744L61.3608 21.1759L61.3674 21.172L61.1088 20.744ZM63.8088 17.792L64.2544 18.019L64.2544 18.019L63.8088 17.792ZM63.8088 8.972L63.3633 9.19897L63.3651 9.20241L63.8088 8.972ZM61.1088 6.056L60.8569 6.48789L60.8569 6.48789L61.1088 6.056ZM53.0808 6.056L52.8328 5.62186L52.8289 5.62411L53.0808 6.056ZM50.3808 8.972L50.8246 9.20241L50.8264 9.19896L50.3808 8.972ZM50.3808 17.792L50.8264 17.565L50.8264 17.565L50.3808 17.792ZM53.0808 20.744L52.8222 21.1721L52.8328 21.1781L53.0808 20.744ZM57.1128 25.752C54.8427 25.752 52.7675 25.2202 50.8775 24.1599L50.3882 25.0321C52.4342 26.1798 54.6789 26.752 57.1128 26.752V25.752ZM50.8775 24.1599C48.9863 23.099 47.4902 21.6376 46.383 19.7691L45.5227 20.2789C46.7195 22.2984 48.3434 23.885 50.3882 25.0321L50.8775 24.1599ZM46.3844 19.7714C45.2809 17.8864 44.7248 15.7549 44.7248 13.364H43.7248C43.7248 15.9171 44.3207 18.2256 45.5213 20.2766L46.3844 19.7714ZM44.7248 13.364C44.7248 10.998 45.2805 8.89135 46.383 7.0309L45.5227 6.5211C44.3212 8.54865 43.7248 10.834 43.7248 13.364H44.7248ZM46.3844 7.02859C47.492 5.13641 48.9878 3.66412 50.8775 2.60407L50.3882 1.73193C48.3419 2.87988 46.7177 4.47958 45.5213 6.52341L46.3844 7.02859ZM50.8775 2.60407C52.7675 1.54379 54.8427 1.012 57.1128 1.012V0.0119998C54.6789 0.0119998 52.4342 0.584206 50.3882 1.73193L50.8775 2.60407ZM57.1128 1.012C59.4079 1.012 61.482 1.54422 63.3459 2.60278L63.8398 1.73322C61.8157 0.583776 59.5698 0.0119998 57.1128 0.0119998V1.012ZM63.3482 2.60407C65.2369 3.6636 66.7198 5.13463 67.803 7.02464L68.6706 6.52736C67.4979 4.48136 65.8847 2.8804 63.8375 1.73193L63.3482 2.60407ZM67.8067 7.0309C68.9092 8.89135 69.4648 10.998 69.4648 13.364H70.4648C70.4648 10.834 69.8685 8.54865 68.667 6.5211L67.8067 7.0309ZM69.4648 13.364C69.4648 15.7549 68.9087 17.8864 67.8053 19.7714L68.6684 20.2766C69.8689 18.2256 70.4648 15.9171 70.4648 13.364H69.4648ZM67.8044 19.7731C66.7215 21.6393 65.2385 23.0995 63.3482 24.1599L63.8375 25.0321C65.8832 23.8845 67.4962 22.2967 68.6693 20.2749L67.8044 19.7731ZM63.3482 24.1599C61.4582 25.2202 59.3829 25.752 57.1128 25.752V26.752C59.5467 26.752 61.7915 26.1798 63.8375 25.0321L63.3482 24.1599ZM57.1128 22.252C58.7013 22.252 60.1225 21.8982 61.3608 21.1759L60.8569 20.3121C59.7912 20.9338 58.5484 21.252 57.1128 21.252V22.252ZM61.3674 21.172C62.6042 20.4247 63.5667 19.3688 64.2544 18.019L63.3633 17.565C62.755 18.7592 61.9175 19.6713 60.8503 20.316L61.3674 21.172ZM64.2544 18.019C64.944 16.6652 65.2808 15.109 65.2808 13.364H64.2808C64.2808 14.979 63.9697 16.3748 63.3633 17.565L64.2544 18.019ZM65.2808 13.364C65.2808 11.6193 64.9441 10.0734 64.2526 8.74159L63.3651 9.20241C63.9696 10.3666 64.2808 11.7487 64.2808 13.364H65.2808ZM64.2544 8.74504C63.566 7.39386 62.6015 6.34787 61.3608 5.62411L60.8569 6.48789C61.9202 7.10812 62.7557 8.00614 63.3633 9.19896L64.2544 8.74504ZM61.3608 5.62411C60.1225 4.90179 58.7013 4.548 57.1128 4.548V5.548C58.5484 5.548 59.7912 5.8662 60.8569 6.48789L61.3608 5.62411ZM57.1128 4.548C55.5242 4.548 54.0928 4.90185 52.8328 5.62188L53.3289 6.49012C54.4209 5.86615 55.6775 5.548 57.1128 5.548V4.548ZM52.8289 5.62411C51.5882 6.34788 50.6237 7.39386 49.9353 8.74504L50.8264 9.19896C51.434 8.00614 52.2695 7.10812 53.3328 6.48789L52.8289 5.62411ZM49.9371 8.74159C49.2456 10.0734 48.9088 11.6193 48.9088 13.364H49.9088C49.9088 11.7487 50.2201 10.3666 50.8246 9.20241L49.9371 8.74159ZM48.9088 13.364C48.9088 15.109 49.2457 16.6652 49.9353 18.019L50.8264 17.565C50.22 16.3748 49.9088 14.979 49.9088 13.364H48.9088ZM49.9353 18.019C50.623 19.3688 51.5855 20.4247 52.8223 21.172L53.3394 20.316C52.2722 19.6713 51.4347 18.7592 50.8264 17.565L49.9353 18.019ZM52.8328 21.1781C54.0928 21.8981 55.5242 22.252 57.1128 22.252V21.252C55.6775 21.252 54.4209 20.9339 53.3289 20.3099L52.8328 21.1781ZM88.3665 0.872H88.8665V0.372H88.3665V0.872ZM86.2425 24.236L86.5867 24.5987L86.5899 24.5956L86.2425 24.236ZM74.7225 24.164L74.3779 24.5264L74.3809 24.5291L74.7225 24.164ZM72.5265 18.332V17.832H72.0265V18.332H72.5265ZM77.5665 18.332L78.0663 18.3209L78.0555 17.832H77.5665V18.332ZM78.3225 20.852L77.9319 21.1644L77.9396 21.1736L78.3225 20.852ZM82.5705 20.888L82.9546 21.2081L82.9546 21.2081L82.5705 20.888ZM83.2905 0.872V0.372H82.7905V0.872H83.2905ZM87.8665 0.872V18.512H88.8665V0.872H87.8665ZM87.8665 18.512C87.8665 20.8595 87.1909 22.6245 85.8951 23.8764L86.5899 24.5956C88.126 23.1115 88.8665 21.0605 88.8665 18.512H87.8665ZM85.8983 23.8733C84.5945 25.1108 82.8318 25.752 80.5545 25.752V26.752C83.0292 26.752 85.0584 26.0492 86.5867 24.5987L85.8983 23.8733ZM80.5545 25.752C78.2573 25.752 76.4432 25.0891 75.064 23.7989L74.3809 24.5291C75.9777 26.0229 78.0517 26.752 80.5545 26.752V25.752ZM75.067 23.8016C73.7248 22.5254 73.0265 20.7255 73.0265 18.332H72.0265C72.0265 20.9305 72.7922 23.0186 74.3779 24.5264L75.067 23.8016ZM72.5265 18.832H77.5665V17.832H72.5265V18.832ZM77.0666 18.3431C77.0921 19.4893 77.3605 20.45 77.932 21.1643L78.7129 20.5397C78.3244 20.054 78.0889 19.3347 78.0663 18.3209L77.0666 18.3431ZM77.9396 21.1736C78.5573 21.9089 79.4305 22.252 80.4825 22.252V21.252C79.6625 21.252 79.0957 20.9951 78.7053 20.5304L77.9396 21.1736ZM80.4825 22.252C81.5076 22.252 82.3591 21.9227 82.9546 21.2081L82.1864 20.5679C81.8218 21.0053 81.2813 21.252 80.4825 21.252V22.252ZM82.9546 21.2081C83.5318 20.5154 83.7905 19.5965 83.7905 18.512H82.7905C82.7905 19.4435 82.5691 20.1086 82.1864 20.5679L82.9546 21.2081ZM83.7905 18.512V0.872H82.7905V18.512H83.7905ZM83.2905 1.372H88.3665V0.372H83.2905V1.372ZM99.2857 4.94V4.44H98.7857V4.94H99.2857ZM99.2857 11.24H98.7857V11.74H99.2857V11.24ZM107.746 11.24H108.246V10.74H107.746V11.24ZM107.746 15.236V15.736H108.246V15.236H107.746ZM99.2857 15.236V14.736H98.7857V15.236H99.2857ZM99.2857 21.896H98.7857V22.396H99.2857V21.896ZM108.826 21.896H109.326V21.396H108.826V21.896ZM108.826 26V26.5H109.326V26H108.826ZM94.2457 26H93.7457V26.5H94.2457V26ZM94.2457 0.835998V0.335998H93.7457V0.835998H94.2457ZM108.826 0.835998H109.326V0.335998H108.826V0.835998ZM108.826 4.94V5.44H109.326V4.94H108.826ZM98.7857 4.94V11.24H99.7857V4.94H98.7857ZM99.2857 11.74H107.746V10.74H99.2857V11.74ZM107.246 11.24V15.236H108.246V11.24H107.246ZM107.746 14.736H99.2857V15.736H107.746V14.736ZM98.7857 15.236V21.896H99.7857V15.236H98.7857ZM99.2857 22.396H108.826V21.396H99.2857V22.396ZM108.326 21.896V26H109.326V21.896H108.326ZM108.826 25.5H94.2457V26.5H108.826V25.5ZM94.7457 26V0.835998H93.7457V26H94.7457ZM94.2457 1.336H108.826V0.335998H94.2457V1.336ZM108.326 0.835998V4.94H109.326V0.835998H108.326ZM108.826 4.44H99.2857V5.44H108.826V4.44ZM113.838 6.776L113.404 6.52736L113.403 6.52909L113.838 6.776ZM118.41 2.204L118.655 2.63979L118.657 2.63878L118.41 2.204ZM136.734 8.684V9.184H137.426L137.209 8.52723L136.734 8.684ZM130.938 8.684L130.487 8.90036L130.623 9.184H130.938V8.684ZM128.49 5.984L128.239 6.41627L128.243 6.41873L128.49 5.984ZM120.966 6.128L121.222 6.55756L121.224 6.55596L120.966 6.128ZM118.302 9.008L117.858 8.77756L117.855 8.78439L118.302 9.008ZM118.302 17.792L117.853 18.0123L117.858 18.0224L118.302 17.792ZM120.966 20.708L120.703 21.1336L120.714 21.1399L120.966 20.708ZM128.49 20.816L128.741 21.2483L128.744 21.2465L128.49 20.816ZM130.938 18.08V17.58H130.623L130.487 17.8636L130.938 18.08ZM136.734 18.08L137.209 18.2354L137.423 17.58H136.734V18.08ZM132.306 24.092L132.587 24.5058L132.588 24.5051L132.306 24.092ZM118.41 24.596L118.161 25.0295L118.167 25.0331L118.41 24.596ZM113.838 20.024L113.403 20.2709L113.405 20.2749L113.838 20.024ZM112.682 13.4C112.682 11.0052 113.216 8.88389 114.273 7.02291L113.403 6.52909C112.252 8.55611 111.682 10.8508 111.682 13.4H112.682ZM114.272 7.02464C115.356 5.13246 116.816 3.67421 118.655 2.63979L118.165 1.76821C116.164 2.89379 114.576 4.48354 113.404 6.52736L114.272 7.02464ZM118.657 2.63878C120.52 1.58066 122.606 1.048 124.926 1.048V0.0479994C122.446 0.0479994 120.188 0.619339 118.163 1.76922L118.657 2.63878ZM124.926 1.048C127.644 1.048 130.003 1.74328 132.024 3.12111L132.588 2.29489C130.384 0.792721 127.824 0.0479994 124.926 0.0479994V1.048ZM132.024 3.12111C134.041 4.49609 135.452 6.39574 136.259 8.84077L137.209 8.52723C136.336 5.88426 134.795 3.79991 132.588 2.29489L132.024 3.12111ZM136.734 8.184H130.938V9.184H136.734V8.184ZM131.389 8.46763C130.773 7.18501 129.89 6.20443 128.737 5.54927L128.243 6.41873C129.202 6.96357 129.951 7.78298 130.487 8.90036L131.389 8.46763ZM128.741 5.55174C127.622 4.90123 126.333 4.584 124.89 4.584V5.584C126.183 5.584 127.293 5.86677 128.239 6.41625L128.741 5.55174ZM124.89 4.584C123.343 4.584 121.944 4.95281 120.707 5.70004L121.224 6.55596C122.292 5.91119 123.509 5.584 124.89 5.584V4.584ZM120.71 5.69845C119.496 6.42146 118.546 7.45313 117.858 8.77759L118.746 9.23841C119.354 8.06687 120.179 7.17853 121.222 6.55755L120.71 5.69845ZM117.855 8.78439C117.19 10.1146 116.866 11.658 116.866 13.4H117.866C117.866 11.782 118.166 10.3974 118.749 9.23161L117.855 8.78439ZM116.866 13.4C116.866 15.1195 117.19 16.661 117.853 18.0122L118.751 17.5718C118.166 16.379 117.866 14.9925 117.866 13.4H116.866ZM117.858 18.0224C118.545 19.3455 119.494 20.3871 120.703 21.1335L121.228 20.2825C120.182 19.6369 119.355 18.7345 118.746 17.5616L117.858 18.0224ZM120.714 21.1399C121.95 21.8608 123.346 22.216 124.89 22.216V21.216C123.506 21.216 122.286 20.8992 121.218 20.2761L120.714 21.1399ZM124.89 22.216C126.333 22.216 127.622 21.8988 128.741 21.2483L128.239 20.3837C127.293 20.9332 126.183 21.216 124.89 21.216V22.216ZM128.744 21.2465C129.893 20.5678 130.774 19.5776 131.389 18.2964L130.487 17.8636C129.95 18.9824 129.199 19.8162 128.236 20.3855L128.744 21.2465ZM130.938 18.58H136.734V17.58H130.938V18.58ZM136.259 17.9246C135.451 20.3941 134.04 22.3047 132.024 23.6789L132.588 24.5051C134.796 22.9992 136.337 20.9019 137.209 18.2354L136.259 17.9246ZM132.025 23.6782C130.03 25.0313 127.671 25.716 124.926 25.716V26.716C127.845 26.716 130.406 25.9847 132.587 24.5058L132.025 23.6782ZM124.926 25.716C122.604 25.716 120.517 25.1944 118.653 24.1589L118.167 25.0331C120.191 26.1576 122.448 26.716 124.926 26.716V25.716ZM118.659 24.1625C116.816 23.1029 115.355 21.6424 114.27 19.7731L113.405 20.2749C114.577 22.2936 116.163 23.8811 118.161 25.0295L118.659 24.1625ZM114.273 19.7771C113.216 17.9161 112.682 15.7948 112.682 13.4H111.682C111.682 15.9492 112.252 18.2439 113.403 20.2709L114.273 19.7771ZM158.139 0.872H158.639V0.372H158.139V0.872ZM158.139 4.94V5.44H158.639V4.94H158.139ZM151.443 4.94V4.44H150.943V4.94H151.443ZM151.443 26V26.5H151.943V26H151.443ZM146.403 26H145.903V26.5H146.403V26ZM146.403 4.94H146.903V4.44H146.403V4.94ZM139.707 4.94H139.207V5.44H139.707V4.94ZM139.707 0.872V0.372H139.207V0.872H139.707ZM157.639 0.872V4.94H158.639V0.872H157.639ZM158.139 4.44H151.443V5.44H158.139V4.44ZM150.943 4.94V26H151.943V4.94H150.943ZM151.443 25.5H146.403V26.5H151.443V25.5ZM146.903 26V4.94H145.903V26H146.903ZM146.403 4.44H139.707V5.44H146.403V4.44ZM140.207 4.94V0.872H139.207V4.94H140.207ZM139.707 1.372H158.139V0.372H139.707V1.372ZM165.74 25.352L165.542 25.8112L165.545 25.8124L165.74 25.352ZM162.428 22.76L162.023 23.0531L162.023 23.0531L162.428 22.76ZM161.168 18.764V18.264H160.66L160.668 18.7718L161.168 18.764ZM166.568 18.764L167.067 18.7292L167.034 18.264H166.568V18.764ZM167.648 21.212L167.308 21.5789L167.315 21.585L167.648 21.212ZM173.156 21.284L173.473 21.6704L173.481 21.6636L173.156 21.284ZM173.48 17.216L173.118 17.5604L173.118 17.5604L173.48 17.216ZM171.752 16.1L171.555 16.5596L171.565 16.5637L171.575 16.5675L171.752 16.1ZM168.944 15.164L168.803 15.6437L168.809 15.6455L168.944 15.164ZM164.948 13.76L164.733 14.2114L164.739 14.2145L164.746 14.2173L164.948 13.76ZM162.32 11.636L161.92 11.9361L161.929 11.9471L162.32 11.636ZM162.356 3.932L162.771 4.21143L162.771 4.21143L162.356 3.932ZM165.488 1.412L165.685 1.87162L165.692 1.86857L165.488 1.412ZM176.396 2.42L176.086 2.81219L176.092 2.81718L176.396 2.42ZM179.096 7.676V8.176H179.635L179.595 7.63887L179.096 7.676ZM173.552 7.676L173.053 7.70373L173.079 8.176H173.552V7.676ZM172.436 5.552L172.111 5.93163L172.118 5.93783L172.125 5.94375L172.436 5.552ZM167.36 5.444L167.038 5.06107L167.031 5.06771L167.36 5.444ZM167.144 9.332L166.781 9.67587L166.79 9.68568L166.8 9.69498L167.144 9.332ZM168.8 10.412L168.597 10.8689L168.607 10.8734L168.617 10.8774L168.8 10.412ZM171.608 11.348L171.464 11.8269L171.467 11.8277L171.608 11.348ZM178.268 14.948L177.873 15.2543L177.873 15.2543L178.268 14.948ZM178.34 22.472L177.912 22.2134L177.912 22.2134L178.34 22.472ZM175.28 25.244L175.504 25.6913L175.51 25.688L175.28 25.244ZM170.492 25.752C168.798 25.752 167.281 25.4621 165.935 24.8916L165.545 25.8124C167.031 26.4419 168.682 26.752 170.492 26.752V25.752ZM165.938 24.8928C164.621 24.3252 163.592 23.5155 162.833 22.4669L162.023 23.0531C162.896 24.2605 164.075 25.1788 165.542 25.8112L165.938 24.8928ZM162.833 22.4669C162.083 21.4306 161.691 20.2007 161.668 18.7562L160.668 18.7718C160.694 20.3993 161.141 21.8334 162.023 23.0531L162.833 22.4669ZM161.168 19.264H166.568V18.264H161.168V19.264ZM166.069 18.7988C166.148 19.9345 166.551 20.8778 167.308 21.5789L167.988 20.8451C167.449 20.3462 167.132 19.6575 167.067 18.7292L166.069 18.7988ZM167.315 21.585C168.102 22.2876 169.144 22.612 170.384 22.612V21.612C169.32 21.612 168.538 21.3364 167.981 20.839L167.315 21.585ZM170.384 22.612C171.635 22.612 172.685 22.3181 173.473 21.6704L172.839 20.8976C172.283 21.3539 171.485 21.612 170.384 21.612V22.612ZM173.481 21.6636C174.268 20.9894 174.664 20.1049 174.664 19.052H173.664C173.664 19.8231 173.388 20.4266 172.831 20.9044L173.481 21.6636ZM174.664 19.052C174.664 18.197 174.398 17.4563 173.843 16.8716L173.118 17.5604C173.474 17.9357 173.664 18.419 173.664 19.052H174.664ZM173.843 16.8716C173.329 16.3308 172.687 15.9198 171.929 15.6325L171.575 16.5675C172.209 16.8082 172.719 17.1412 173.118 17.5604L173.843 16.8716ZM171.949 15.6404C171.248 15.3398 170.288 15.0209 169.079 14.6825L168.809 15.6455C170.001 15.9791 170.912 16.2842 171.555 16.5596L171.949 15.6404ZM169.085 14.6843C167.465 14.2077 166.155 13.7467 165.15 13.3027L164.746 14.2173C165.805 14.6853 167.159 15.1603 168.803 15.6437L169.085 14.6843ZM165.163 13.3086C164.229 12.8636 163.412 12.2056 162.711 11.3249L161.929 11.9471C162.717 12.9384 163.652 13.6964 164.733 14.2114L165.163 13.3086ZM162.72 11.336C162.083 10.4866 161.74 9.33031 161.74 7.82H160.74C160.74 9.47768 161.117 10.8654 161.92 11.936L162.72 11.336ZM161.74 7.82C161.74 6.4194 162.089 5.22332 162.771 4.21143L161.941 3.65257C161.135 4.84868 160.74 6.2446 160.74 7.82H161.74ZM162.771 4.21143C163.456 3.19492 164.42 2.41357 165.685 1.87157L165.291 0.952426C163.868 1.56243 162.744 2.46108 161.941 3.65257L162.771 4.21143ZM165.692 1.86857C166.962 1.30175 168.426 1.012 170.096 1.012V0.0119998C168.31 0.0119998 166.703 0.322249 165.284 0.95543L165.692 1.86857ZM170.096 1.012C172.606 1.012 174.587 1.62671 176.086 2.81214L176.706 2.02786C174.989 0.669286 172.77 0.0119998 170.096 0.0119998V1.012ZM176.092 2.81718C177.599 3.96913 178.439 5.58335 178.597 7.71313L179.595 7.63887C179.417 5.25665 178.457 3.36687 176.7 2.02282L176.092 2.81718ZM179.096 7.176H173.552V8.176H179.096V7.176ZM174.051 7.64826C173.995 6.63729 173.551 5.79837 172.747 5.16025L172.125 5.94375C172.713 6.40963 173.013 6.98671 173.053 7.70373L174.051 7.64826ZM172.761 5.17237C171.976 4.49931 170.95 4.188 169.736 4.188V5.188C170.778 5.188 171.552 5.45269 172.111 5.93163L172.761 5.17237ZM169.736 4.188C168.665 4.188 167.75 4.46372 167.038 5.06115L167.682 5.82685C168.17 5.41628 168.839 5.188 169.736 5.188V4.188ZM167.031 5.06771C166.32 5.68991 165.996 6.57535 165.996 7.64H166.996C166.996 6.78465 167.248 6.20609 167.689 5.82029L167.031 5.06771ZM165.996 7.64C165.996 8.43012 166.255 9.12011 166.781 9.67587L167.507 8.98813C167.17 8.63188 166.996 8.19387 166.996 7.64H165.996ZM166.8 9.69498C167.302 10.1708 167.904 10.5608 168.597 10.8689L169.003 9.95509C168.4 9.68723 167.898 9.35725 167.488 8.96902L166.8 9.69498ZM168.617 10.8774C169.308 11.1488 170.259 11.4654 171.464 11.8269L171.752 10.8691C170.557 10.5106 169.636 10.2032 168.983 9.94662L168.617 10.8774ZM171.467 11.8277C173.086 12.3037 174.392 12.7756 175.393 13.2414L175.815 12.3346C174.752 11.8404 173.395 11.3523 171.749 10.8683L171.467 11.8277ZM175.393 13.2414C176.348 13.6855 177.174 14.353 177.873 15.2543L178.663 14.6417C177.874 13.623 176.924 12.8505 175.815 12.3346L175.393 13.2414ZM177.873 15.2543C178.532 16.1044 178.884 17.247 178.884 18.728H179.884C179.884 17.089 179.492 15.7116 178.663 14.6417L177.873 15.2543ZM178.884 18.728C178.884 19.9807 178.561 21.1393 177.912 22.2134L178.768 22.7306C179.511 21.5007 179.884 20.1633 179.884 18.728H178.884ZM177.912 22.2134C177.269 23.2771 176.323 24.141 175.05 24.8L175.51 25.688C176.925 24.955 178.019 23.9709 178.768 22.7306L177.912 22.2134ZM175.056 24.7968C173.796 25.427 172.28 25.752 170.492 25.752V26.752C172.4 26.752 174.076 26.405 175.504 25.6912L175.056 24.7968Z" fill="#297EA6"/>
</svg>
