<svg width="47" height="30" viewBox="0 0 47 30" fill="none" xmlns="http://www.w3.org/2000/svg">
<path d="M33 24C34.775 23.9996 36.4988 23.4054 37.897 22.312L42.293 26.708L43.707 25.294L39.311 20.898C40.405 19.4997 40.9996 17.7754 41 16C41 11.589 37.411 8 33 8C28.589 8 25 11.589 25 16C25 20.411 28.589 24 33 24ZM33 10C36.309 10 39 12.691 39 16C39 19.309 36.309 22 33 22C29.691 22 27 19.309 27 16C27 12.691 29.691 10 33 10Z" fill="black"/>
<path d="M6.556 24.154C5.544 24.154 4.63467 23.978 3.828 23.626C3.036 23.2593 2.41267 22.7607 1.958 22.13C1.50333 21.4847 1.26867 20.744 1.254 19.908H3.388C3.46133 20.6267 3.75467 21.2353 4.268 21.734C4.796 22.218 5.55867 22.46 6.556 22.46C7.50933 22.46 8.25733 22.2253 8.8 21.756C9.35733 21.272 9.636 20.656 9.636 19.908C9.636 19.3213 9.47467 18.8447 9.152 18.478C8.82933 18.1113 8.426 17.8327 7.942 17.642C7.458 17.4513 6.80533 17.246 5.984 17.026C4.972 16.762 4.158 16.498 3.542 16.234C2.94067 15.97 2.42 15.5593 1.98 15.002C1.55467 14.43 1.342 13.6673 1.342 12.714C1.342 11.878 1.55467 11.1373 1.98 10.492C2.40533 9.84667 2.99933 9.348 3.762 8.996C4.53933 8.644 5.42667 8.468 6.424 8.468C7.86133 8.468 9.03467 8.82733 9.944 9.546C10.868 10.2647 11.3887 11.218 11.506 12.406H9.306C9.23267 11.8193 8.92467 11.306 8.382 10.866C7.83933 10.4113 7.12067 10.184 6.226 10.184C5.39 10.184 4.708 10.404 4.18 10.844C3.652 11.2693 3.388 11.8707 3.388 12.648C3.388 13.2053 3.542 13.66 3.85 14.012C4.17267 14.364 4.56133 14.6353 5.016 14.826C5.48533 15.002 6.138 15.2073 6.974 15.442C7.986 15.7207 8.8 15.9993 9.416 16.278C10.032 16.542 10.56 16.96 11 17.532C11.44 18.0893 11.66 18.852 11.66 19.82C11.66 20.568 11.462 21.272 11.066 21.932C10.67 22.592 10.0833 23.1273 9.306 23.538C8.52867 23.9487 7.612 24.154 6.556 24.154ZM16.6081 10.294V15.42H22.1961V17.07H16.6081V22.35H22.8561V24H14.6061V8.644H22.8561V10.294H16.6081Z" fill="black"/>
</svg>
